<?xml version="1.0" encoding="UTF-8" standalone="no"?>
<svg
   width="826.70532"
   height="708.85339"
   overflow="hidden"
   version="1.1"
   id="svg26"
   sodipodi:docname="LAICS_Logo_Vector.svg"
   inkscape:version="1.3.2 (091e20e, 2023-11-25, custom)"
   inkscape:export-filename="LAICS_Logo_Vector.svg"
   inkscape:export-xdpi="96"
   inkscape:export-ydpi="96"
   xmlns:inkscape="http://www.inkscape.org/namespaces/inkscape"
   xmlns:sodipodi="http://sodipodi.sourceforge.net/DTD/sodipodi-0.dtd"
   xmlns="http://www.w3.org/2000/svg"
   xmlns:svg="http://www.w3.org/2000/svg">
  <defs
     id="defs26" />
  <sodipodi:namedview
     id="namedview26"
     pagecolor="#ffffff"
     bordercolor="#000000"
     borderopacity="0.25"
     inkscape:showpageshadow="2"
     inkscape:pageopacity="0.0"
     inkscape:pagecheckerboard="0"
     inkscape:deskcolor="#d1d1d1"
     showgrid="true"
     inkscape:zoom="1.141867"
     inkscape:cx="421.67784"
     inkscape:cy="503.12341"
     inkscape:window-width="2560"
     inkscape:window-height="1369"
     inkscape:window-x="2552"
     inkscape:window-y="-8"
     inkscape:window-maximized="1"
     inkscape:current-layer="svg26"
     inkscape:export-bgcolor="#ffffff00">
    <inkscape:page
       x="0"
       y="0"
       width="826.70532"
       height="708.85339"
       id="page27"
       margin="0 0 0 0"
       bleed="0" />
    <inkscape:grid
       id="grid27"
       units="px"
       originx="0"
       originy="0"
       spacingx="1"
       spacingy="1"
       empcolor="#0099e5"
       empopacity="0.30196078"
       color="#0099e5"
       opacity="0.14901961"
       empspacing="5"
       dotted="false"
       gridanglex="30"
       gridanglez="30"
       visible="true" />
  </sodipodi:namedview>
  <g
     id="g26"
     transform="translate(-246.46347,-4.9540396)">
    <path
       d="M 253.5,360.5 660,14.5001 1066.5,360.5 660,706.5 Z"
       stroke="#172c51"
       stroke-width="1.33333"
       stroke-miterlimit="8"
       fill="#003366"
       fill-rule="evenodd"
       id="path1"
       style="display:inline" />
    <path
       d="m 476.5,235 c 0,-36.727 35.37,-66.5 79,-66.5 43.631,0 79,29.773 79,66.5 0,36.727 -35.369,66.5 -79,66.5 -43.63,0 -79,-29.773 -79,-66.5 z"
       stroke="#fffe48"
       stroke-width="1.33333"
       stroke-miterlimit="8"
       fill="#ffffff"
       fill-rule="evenodd"
       id="path2"
       style="display:inline" />
    <path
       d="m 688.5,235 c 0,-36.727 35.37,-66.5 79,-66.5 43.631,0 79,29.773 79,66.5 0,36.727 -35.369,66.5 -79,66.5 -43.63,0 -79,-29.773 -79,-66.5 z"
       stroke="#fffe48"
       stroke-width="1.33333"
       stroke-miterlimit="8"
       fill="#ffffff"
       fill-rule="evenodd"
       id="path3"
       style="display:inline" />
    <path
       d="m 581.5,514 c 0,-36.727 35.37,-66.5 79,-66.5 43.631,0 79,29.773 79,66.5 0,36.727 -35.369,66.5 -79,66.5 -43.63,0 -79,-29.773 -79,-66.5 z"
       stroke="#fffe48"
       stroke-width="1.33333"
       stroke-miterlimit="8"
       fill="#ffffff"
       fill-rule="evenodd"
       id="path4"
       style="display:inline" />
    <rect
       x="476"
       y="318"
       width="370"
       height="116"
       fill="#fffe48"
       id="rect4"
       style="display:inline;fill:#fffe48;fill-opacity:1" />
    <text
       fill="#003366"
       font-family="Rockwell, Rockwell_MSFontService, sans-serif"
       font-weight="400"
       font-size="117px"
       transform="translate(495.333,418)"
       id="text4">LAICS</text>
    <path
       d="M 392,362 C 392,234.422 512.435,131 661,131 809.565,131 930,234.422 930,362 930,489.578 809.565,593 661,593 512.435,593 392,489.578 392,362 Z"
       stroke="#fffe48"
       stroke-width="4"
       stroke-miterlimit="8"
       fill="none"
       fill-rule="evenodd"
       id="path5" />
    <path
       d="M 0,0 29.5001,1.04987e-4"
       stroke="#003366"
       stroke-width="6"
       stroke-miterlimit="8"
       fill="none"
       fill-rule="evenodd"
       transform="matrix(-1,0,0,1,689.5,494)"
       id="path6"
       style="display:inline" />
    <path
       d="m 687,455 v 41.5"
       stroke="#003366"
       stroke-width="6"
       stroke-miterlimit="8"
       fill="none"
       fill-rule="evenodd"
       id="path7"
       style="display:inline" />
    <path
       d="m 581.5,514 c 0,-36.727 35.37,-66.5 79,-66.5 43.631,0 79,29.773 79,66.5 0,36.727 -35.369,66.5 -79,66.5 -43.63,0 -79,-29.773 -79,-66.5 z"
       stroke="#fffe48"
       stroke-width="1.33333"
       stroke-miterlimit="8"
       fill="none"
       fill-rule="evenodd"
       id="path8"
       style="display:inline" />
    <path
       d="m 663,494 v 38.75"
       stroke="#003366"
       stroke-width="6"
       stroke-miterlimit="8"
       fill="none"
       fill-rule="evenodd"
       id="path9"
       style="display:inline" />
    <path
       d="m 687,530 v 41.5"
       stroke="#003366"
       stroke-width="6"
       stroke-miterlimit="8"
       fill="none"
       fill-rule="evenodd"
       id="path10"
       style="display:inline" />
    <path
       d="M 0,0 29.5001,1.04987e-4"
       stroke="#003366"
       stroke-width="6"
       stroke-miterlimit="8"
       fill="none"
       fill-rule="evenodd"
       transform="matrix(-1,0,0,1,689.5,530)"
       id="path11"
       style="display:inline" />
    <path
       d="m 642,494 v 38.75"
       stroke="#003366"
       stroke-width="6"
       stroke-miterlimit="8"
       fill="none"
       fill-rule="evenodd"
       id="path12"
       style="display:inline" />
    <path
       d="m 596,513 h 45.5"
       stroke="#003366"
       stroke-width="6"
       stroke-miterlimit="8"
       fill="none"
       fill-rule="evenodd"
       id="path13"
       style="display:inline" />
    <path
       d="m 687.5,236 c 0,-36.727 35.37,-66.5 79,-66.5 43.631,0 79,29.773 79,66.5 0,36.727 -35.369,66.5 -79,66.5 -43.63,0 -79,-29.773 -79,-66.5 z"
       stroke="#fffe48"
       stroke-width="1.33333"
       stroke-miterlimit="8"
       fill="none"
       fill-rule="evenodd"
       id="path14"
       style="display:inline" />
    <path
       d="m 730.5,286.5 34.5,-34 34.5,34 z"
       stroke="#172c51"
       stroke-width="3"
       stroke-miterlimit="8"
       fill="none"
       fill-rule="evenodd"
       id="path15"
       style="display:inline" />
    <path
       d="m 829.077,241.731 c -13.78,20.456 -45.22,23.386 -70.223,6.544 -25.004,-16.843 -34.103,-47.08 -20.323,-67.536 23.049,28.72 55.269,50.424 90.546,60.992 z"
       stroke="#172c51"
       stroke-width="3"
       stroke-miterlimit="8"
       fill="none"
       fill-rule="evenodd"
       id="path16"
       style="display:inline" />
    <path
       d="M 0,0 63.3324,10.5001"
       stroke="#003366"
       stroke-width="3"
       stroke-miterlimit="8"
       fill="none"
       fill-rule="evenodd"
       transform="matrix(1,0,0,-1,748.5,192)"
       id="path17"
       style="display:inline" />
    <path
       d="m 810.5,182.5 6.506,54.25"
       stroke="#003366"
       stroke-width="3"
       stroke-miterlimit="8"
       fill="none"
       fill-rule="evenodd"
       id="path18"
       style="display:inline" />
    <path
       d="M 0,0 158.15,0.875066"
       stroke="#003366"
       stroke-width="3"
       stroke-miterlimit="8"
       fill="none"
       fill-rule="evenodd"
       transform="matrix(1,0,0,-1,476.5,236.375)"
       id="path19"
       style="display:inline" />
    <path
       d="m 555,236.5 c 0,-20.158 17.685,-36.5 39.5,-36.5 21.815,0 39.5,16.342 39.5,36.5 0,20.158 -17.685,36.5 -39.5,36.5 -21.815,0 -39.5,-16.342 -39.5,-36.5 z"
       stroke="#172c51"
       stroke-width="2"
       stroke-miterlimit="8"
       fill="none"
       fill-rule="evenodd"
       id="path20"
       style="display:inline" />
    <path
       d="m 509,235.5 c 0,-29.547 27.982,-53.5 62.5,-53.5 34.518,0 62.5,23.953 62.5,53.5 0,29.547 -27.982,53.5 -62.5,53.5 -34.518,0 -62.5,-23.953 -62.5,-53.5 z"
       stroke="#172c51"
       stroke-width="2"
       stroke-miterlimit="8"
       fill="none"
       fill-rule="evenodd"
       id="path21"
       style="display:inline" />
    <path
       d="m 619.322,234.343 c -42.863,5.673 -88.079,-13.957 -114.706,-49.799"
       stroke="#003366"
       stroke-width="2"
       stroke-miterlimit="8"
       fill="none"
       fill-rule="evenodd"
       id="path22"
       style="display:inline" />
    <path
       d="m 504.329,286.94 c 21.899,-31.476 58.489,-50.806 97.15,-51.325"
       stroke="#003366"
       stroke-width="2"
       stroke-miterlimit="8"
       fill="none"
       fill-rule="evenodd"
       id="path23"
       style="display:inline" />
    <path
       d="m 633.462,234.828 c -38.637,-1.755 -60.782,-27.042 -54.78,-62.551"
       stroke="#003366"
       stroke-width="2"
       stroke-miterlimit="8"
       fill="none"
       fill-rule="evenodd"
       id="path24"
       style="display:inline" />
    <path
       d="m 577.229,299.762 c -4.237,-37.717 18.745,-63.312 56.36,-62.768"
       stroke="#003366"
       stroke-width="2"
       stroke-miterlimit="8"
       fill="none"
       fill-rule="evenodd"
       id="path25"
       style="display:inline" />
    <path
       d="m 476.5,235.5 c 0,-37.003 35.37,-67 79,-67 43.631,0 79,29.997 79,67 0,37.003 -35.369,67 -79,67 -43.63,0 -79,-29.997 -79,-67 z"
       stroke="#fffe48"
       stroke-width="1.33333"
       stroke-miterlimit="8"
       fill="none"
       fill-rule="evenodd"
       id="path26"
       style="display:inline" />
  </g>
</svg>
